<?xml version="1.0" standalone="no"?>
<!DOCTYPE svg PUBLIC "-//W3C//DTD SVG 20010904//EN"
 "http://www.w3.org/TR/2001/REC-SVG-20010904/DTD/svg10.dtd">
<svg version="1.0" xmlns="http://www.w3.org/2000/svg"
 width="328.000000pt" height="328.000000pt" viewBox="0 0 328.000000 328.000000"
 preserveAspectRatio="xMidYMid meet">
<metadata>
Created by potrace 1.14, written by Peter Selinger 2001-2017
</metadata>
<g transform="translate(0.000000,328.000000) scale(0.100000,-0.100000)"
fill="#000000" stroke="none">
<path d="M1563 3232 c-36 -4 -46 -22 -13 -22 11 0 20 -4 20 -9 0 -5 10 -12 23
-17 24 -9 227 -12 227 -4 0 3 38 5 85 4 145 -3 80 23 -105 41 -72 7 -197 11
-237 7z"/>
<path d="M1379 3209 c-20 -4 -47 -10 -60 -12 -85 -16 -259 -75 -259 -89 0 -14
32 -72 44 -80 21 -15 55 -8 202 41 82 27 160 52 174 55 69 15 74 54 9 80 -43
18 -56 18 -110 5z"/>
<path d="M1836 3163 c-1 -2 -29 -6 -62 -9 -63 -7 -94 -18 -94 -35 0 -10 63
-99 147 -208 35 -45 81 -64 133 -52 22 5 40 7 40 4 0 -3 7 0 15 7 8 7 15 10
15 8 0 -2 55 7 123 21 150 32 154 39 69 126 -66 68 -118 110 -159 127 -24 10
-219 19 -227 11z"/>
<path d="M2130 3141 c0 -3 13 -14 28 -23 16 -10 60 -46 98 -81 107 -98 121
-106 200 -109 38 -2 75 -7 82 -11 6 -5 12 -6 12 -3 0 3 12 1 26 -5 24 -9 26
-8 14 7 -41 48 -237 157 -395 219 -29 11 -65 15 -65 6z"/>
<path d="M1528 3105 c-2 -2 -15 -6 -28 -8 -14 -2 -32 -7 -40 -10 -8 -3 -53
-18 -100 -33 -47 -14 -113 -39 -147 -55 -81 -36 -83 -45 -27 -167 70 -153 74
-160 104 -172 29 -12 94 -7 115 9 6 5 82 34 170 65 164 59 211 88 198 124 -12
34 -137 214 -158 228 -21 14 -79 26 -87 19z"/>
<path d="M922 3050 c-117 -64 -278 -179 -283 -202 0 -2 -2 -22 -5 -45 -8 -63
5 -60 174 43 31 18 63 34 70 34 6 0 12 4 12 8 0 5 23 19 51 32 28 14 61 37 74
52 24 28 24 29 6 68 -10 22 -20 42 -22 45 -3 2 -37 -14 -77 -35z"/>
<path d="M2437 2884 c-15 -15 -4 -37 73 -153 44 -65 80 -124 80 -130 0 -6 4
-11 9 -11 5 0 13 -9 16 -20 8 -25 42 -59 70 -69 10 -5 57 0 105 11 116 25 111
22 100 55 -13 35 -115 172 -177 236 -44 45 -103 86 -103 71 0 -4 -6 -2 -12 3
-15 11 -151 17 -161 7z"/>
<path d="M2210 2858 c-47 -10 -96 -20 -110 -23 -162 -32 -185 -63 -126 -168
42 -77 114 -212 134 -252 37 -75 101 -99 177 -66 46 20 105 42 190 71 49 17
93 36 97 43 14 22 8 65 -14 104 -52 92 -182 282 -197 287 -56 21 -71 21 -151
4z"/>
<path d="M1759 2735 c-3 -2 -14 -6 -25 -8 -10 -2 -30 -9 -44 -14 -14 -6 -56
-22 -95 -36 -143 -52 -220 -87 -238 -109 -32 -40 -20 -84 78 -293 8 -16 27
-61 44 -98 24 -55 36 -70 64 -82 40 -17 69 -15 121 8 21 9 42 17 46 17 4 0 20
7 36 14 36 18 245 106 259 109 6 1 20 15 33 32 17 22 21 38 17 63 -5 34 -63
154 -77 160 -5 2 -8 9 -8 16 0 7 -22 53 -50 102 -35 63 -59 94 -82 107 -31 16
-69 22 -79 12z"/>
<path d="M515 2620 c-145 -138 -209 -206 -222 -237 -11 -26 -17 -73 -18 -152
-3 -128 0 -148 24 -161 16 -8 23 -4 156 98 6 4 40 27 78 52 37 25 73 57 80 73
6 15 15 27 18 27 7 0 -3 68 -21 145 -12 52 -18 91 -22 138 -2 23 -7 27 -33 27
-16 -1 -34 -5 -40 -10z"/>
<path d="M983 2409 c-98 -49 -188 -100 -201 -113 -46 -45 -42 -73 41 -307 55
-156 60 -165 97 -184 38 -19 56 -15 189 47 275 129 288 136 302 170 16 40 14
67 -10 121 -10 23 -44 103 -76 177 -32 74 -65 143 -74 153 -9 9 -33 19 -53 22
-31 4 -64 -9 -215 -86z"/>
<path d="M2862 2469 c-13 -5 -35 -11 -50 -14 -105 -19 -109 -43 -32 -210 18
-38 50 -112 71 -164 35 -86 66 -126 94 -126 6 0 45 23 87 50 72 46 78 53 78
83 0 38 -32 125 -95 257 -61 130 -87 151 -153 124z"/>
<path d="M2515 2359 c-44 -16 -104 -38 -132 -50 -29 -11 -59 -22 -68 -23 -32
-5 -74 -46 -80 -79 -5 -26 3 -54 35 -127 24 -52 64 -145 90 -207 54 -126 66
-142 112 -149 27 -5 60 8 183 71 82 41 157 84 166 94 31 33 19 96 -47 246 -10
22 -17 43 -16 48 1 4 -3 7 -8 7 -5 0 -10 5 -10 11 0 15 -56 130 -72 149 -11
12 -63 42 -71 39 -1 0 -38 -13 -82 -30z"/>
<path d="M2027 2169 c-11 -6 -24 -12 -30 -13 -15 -4 -38 -13 -215 -89 -204
-86 -211 -103 -128 -294 26 -59 53 -121 61 -138 8 -16 27 -60 43 -97 17 -37
41 -73 55 -83 51 -33 77 -27 292 75 33 16 90 42 127 59 37 17 74 42 83 55 17
26 28 106 14 106 -4 0 -10 12 -13 26 -11 43 -149 348 -166 365 -35 37 -87 49
-123 28z"/>
<path d="M3110 1993 c0 -5 -29 -27 -64 -51 -36 -24 -70 -49 -75 -56 -17 -21
-20 -87 -5 -123 7 -18 11 -33 9 -33 -3 0 0 -12 6 -27 6 -16 13 -39 15 -53 3
-14 11 -50 19 -80 8 -30 16 -66 19 -80 13 -74 38 -78 90 -17 76 87 90 143 71
282 -4 33 -9 69 -11 80 -1 11 -3 20 -4 20 -1 0 -4 14 -6 30 -7 47 -26 99 -38
107 -14 10 -26 10 -26 1z"/>
<path d="M193 1880 c-21 -22 -50 -63 -65 -90 -23 -43 -26 -58 -22 -123 2 -41
6 -87 8 -103 3 -16 8 -47 11 -69 8 -53 25 -116 37 -138 9 -18 11 -18 36 -1 15
10 35 25 45 34 10 10 33 26 52 36 64 34 67 73 21 249 -14 55 -28 109 -30 120
-11 56 -28 104 -41 115 -12 10 -21 5 -52 -30z"/>
<path d="M2813 1798 c-13 -7 -78 -42 -145 -77 -144 -74 -155 -83 -167 -128 -9
-32 7 -107 39 -178 7 -16 30 -84 35 -105 1 -3 4 -12 8 -20 3 -8 12 -37 21 -64
20 -60 41 -86 74 -86 24 0 205 113 231 144 7 9 18 16 23 16 11 0 28 16 51 50
22 32 21 77 -2 168 -11 40 -20 76 -20 80 -1 4 -7 25 -13 47 -16 55 -16 57 -22
85 -14 63 -66 94 -113 68z"/>
<path d="M643 1543 c-162 -82 -183 -102 -176 -161 4 -33 72 -200 134 -327 34
-71 76 -108 114 -101 21 4 218 78 272 102 17 8 36 14 42 14 6 0 20 14 30 31
24 40 19 74 -26 169 -34 73 -55 120 -58 130 0 3 -10 25 -21 50 -11 25 -29 66
-39 92 -21 49 -56 78 -97 78 -14 0 -93 -35 -175 -77z"/>
<path d="M2320 1543 c-8 -3 -44 -19 -80 -35 -36 -17 -90 -41 -120 -55 -259
-117 -270 -134 -196 -298 8 -16 28 -64 46 -105 75 -173 79 -181 114 -195 44
-18 61 -13 226 70 239 119 246 125 242 216 -2 26 -101 313 -124 357 -20 38
-70 59 -108 45z"/>
<path d="M3184 1512 c-4 -9 -8 -19 -8 -22 -1 -3 -22 -32 -47 -65 -25 -33 -49
-69 -54 -80 -4 -11 -9 -73 -11 -138 -1 -65 -5 -134 -8 -152 -12 -63 27 -23 50
50 1 6 12 34 23 63 11 29 19 54 19 55 0 1 5 20 11 42 5 22 13 56 16 75 4 19
12 68 19 108 13 69 7 103 -10 64z"/>
<path d="M2975 1268 c-11 -6 -22 -14 -25 -18 -3 -3 -60 -46 -128 -94 -140
-100 -161 -130 -143 -201 6 -22 13 -51 15 -65 3 -14 7 -36 10 -50 3 -14 8 -45
11 -69 12 -99 39 -90 202 70 117 115 121 128 114 376 -1 49 -23 68 -56 51z"/>
<path d="M1674 1250 c-27 -9 -78 -29 -114 -44 -36 -16 -74 -32 -85 -36 -11 -5
-40 -17 -65 -28 -25 -10 -64 -27 -87 -37 -48 -20 -73 -52 -73 -91 0 -39 177
-372 208 -392 36 -24 78 -22 152 6 36 13 70 25 75 26 35 7 240 94 255 108 35
33 35 77 0 154 -55 117 -73 159 -74 164 -3 15 -61 136 -70 145 -6 6 -25 18
-42 26 -27 14 -35 14 -80 -1z"/>
<path d="M2360 882 c-197 -100 -232 -127 -232 -175 0 -13 24 -80 54 -148 54
-123 54 -124 90 -127 32 -3 89 22 213 92 167 95 185 114 180 178 -4 45 -12 90
-21 120 -3 10 -7 30 -10 45 -10 59 -25 90 -50 102 -14 6 -26 11 -28 11 -1 0
-90 -44 -196 -98z"/>
<path d="M2862 765 c-87 -88 -126 -135 -137 -164 -8 -23 -12 -41 -9 -41 2 0 0
-9 -6 -20 -18 -34 -2 -23 61 43 97 99 249 310 222 306 -5 -1 -63 -57 -131
-124z"/>
<path d="M545 834 c-27 -7 -65 -16 -84 -19 -46 -7 -53 -13 -45 -38 7 -24 90
-140 139 -196 91 -103 120 -119 235 -128 67 -5 78 -3 84 12 7 19 4 23 -84 157
-126 191 -135 202 -165 214 -23 9 -41 8 -80 -2z"/>
<path d="M2565 537 c-38 -24 -106 -63 -150 -86 -108 -59 -126 -71 -134 -94
-10 -26 12 -91 32 -95 21 -4 114 48 257 145 71 48 107 97 106 143 -1 39 -33
35 -111 -13z"/>
<path d="M2179 325 c-2 -2 -17 -5 -34 -8 -16 -2 -58 -16 -92 -30 -35 -14 -63
-24 -63 -21 0 2 -17 -2 -37 -10 -21 -8 -71 -24 -110 -35 -60 -18 -73 -25 -73
-42 0 -24 80 -64 110 -54 10 3 34 7 52 9 69 7 290 74 310 94 10 10 -21 76 -42
90 -10 6 -19 9 -21 7z"/>
</g>
</svg>
